<svg xmlns="http://www.w3.org/2000/svg" viewBox="0 0 256 256" role="img" aria-label="P2000">
  <defs>
    <linearGradient id="siren" x1="0" x2="0" y1="0" y2="1">
      <stop offset="0" stop-color="#ff6b6b"/>
      <stop offset="0.55" stop-color="#e02020"/>
      <stop offset="1" stop-color="#9f1010"/>
    </linearGradient>
    <linearGradient id="glass" x1="0" x2="1" y1="0" y2="1">
      <stop offset="0" stop-color="#ffffff" stop-opacity="0.7"/>
      <stop offset="1" stop-color="#ffffff" stop-opacity="0"/>
    </linearGradient>
    <filter id="shadow" x="-20%" y="-20%" width="140%" height="140%">
      <feDropShadow dx="0" dy="8" stdDeviation="8" flood-color="#111827" flood-opacity="0.22"/>
    </filter>
  </defs>

  <rect width="256" height="256" rx="52" fill="#101827"/>
  <path d="M46 73c18-25 48-40 82-40s64 15 82 40" fill="none" stroke="#facc15" stroke-width="12" stroke-linecap="round" opacity="0.95"/>
  <path d="M31 106c22-39 58-61 97-61s75 22 97 61" fill="none" stroke="#fde68a" stroke-width="8" stroke-linecap="round" opacity="0.7"/>

  <g filter="url(#shadow)">
    <path d="M74 133c0-36 24-65 54-65s54 29 54 65v18H74z" fill="url(#siren)"/>
    <path d="M74 133c0-36 24-65 54-65s54 29 54 65v18H74z" fill="none" stroke="#fecaca" stroke-width="6"/>
    <path d="M91 121c5-24 20-40 38-40" fill="none" stroke="url(#glass)" stroke-width="14" stroke-linecap="round"/>
    <rect x="59" y="145" width="138" height="25" rx="10" fill="#e5e7eb"/>
    <rect x="50" y="164" width="156" height="18" rx="9" fill="#6b7280"/>
  </g>

  <text x="128" y="224" text-anchor="middle" font-family="Arial, Helvetica, sans-serif" font-size="43" font-weight="800" letter-spacing="2" fill="#ffffff">P2000</text>
</svg>
